<?xml version="1.0" encoding="UTF-8"?>
<svg version="1.1" xmlns="http://www.w3.org/2000/svg" width="500" height="500">
<path d="M0 0 C2.13737339 -0.00571519 4.27474374 -0.01268384 6.41210938 -0.02079773 C12.17269629 -0.03861951 17.93312996 -0.03758128 23.69373608 -0.03185534 C28.5241428 -0.02874683 33.3545208 -0.03487448 38.18492341 -0.04089409 C49.59270802 -0.05490234 61.00041769 -0.05340955 72.40820312 -0.04199219 C84.12796963 -0.03052086 95.84750702 -0.04457872 107.56724334 -0.07138866 C117.67396827 -0.09363239 127.78062175 -0.1001634 137.88736939 -0.09431225 C143.90397015 -0.09096141 149.92042421 -0.09323176 155.93700409 -0.11056328 C161.60074792 -0.12616874 167.26415575 -0.12192781 172.92788696 -0.10325813 C174.9900227 -0.09960926 177.0521841 -0.10257056 179.11429596 -0.11314392 C195.85061658 -0.19231434 212.41726353 1.43023883 228.11816406 7.65405273 C229.27650757 8.099021 229.27650757 8.099021 230.45825195 8.55297852 C247.31345149 15.21452273 261.11458018 24.977018 274.30566406 37.40405273 C274.96953125 38.0034668 275.63339844 38.60288086 276.31738281 39.22045898 C298.5409604 60.09168905 311.77188969 92.29856766 312.76555729 122.53953552 C312.85019041 127.45598794 312.8438092 132.36989701 312.82324219 137.28686523 C312.82867822 139.50364641 312.8358091 141.72042396 312.84448242 143.93719482 C312.86254258 149.89593307 312.8557205 155.8543908 312.84296608 161.81313324 C312.83274784 168.08709905 312.84225601 174.36104288 312.84851074 180.63500977 C312.85622441 191.83751217 312.84389409 203.03991283 312.82347339 214.24239087 C312.80560764 224.35558532 312.80871338 234.46859597 312.82714844 244.58178711 C312.84865771 256.38660638 312.85646803 268.19133638 312.84469938 279.99617577 C312.83850447 286.22285744 312.83751743 292.44941315 312.85084534 298.67608643 C312.86251022 304.53359654 312.85418623 310.39076401 312.83126831 316.24823761 C312.82603751 318.38132411 312.82739661 320.51444009 312.83631897 322.64751434 C312.9778511 359.9608314 300.94455982 391.18880534 275.30566406 418.40405273 C274.70625 419.06791992 274.10683594 419.73178711 273.48925781 420.41577148 C260.29794561 434.46181234 242.82289194 444.12354838 224.74316406 450.27905273 C223.94185059 450.55330078 223.14053711 450.82754883 222.31494141 451.11010742 C207.08543963 455.99544272 192.46248521 456.84675438 176.61132812 456.80810547 C174.47395473 456.81382065 172.33658438 456.82078931 170.19921875 456.8289032 C164.43863183 456.84672498 158.67819816 456.84568675 152.91759205 456.83996081 C148.08718532 456.8368523 143.25680733 456.84297995 138.42640471 456.84899956 C127.0186201 456.86300781 115.61091043 456.86151502 104.203125 456.85009766 C92.4833585 456.83862633 80.76382111 456.85268419 69.04408479 456.87949413 C58.93735985 456.90173786 48.83070638 456.90826887 38.72395873 456.90241772 C32.70735797 456.89906688 26.69090392 456.90133723 20.67432404 456.91866875 C15.0105802 456.9342742 9.34717238 456.93003327 3.68344116 456.9113636 C1.62130543 456.90771473 -0.44085598 456.91067603 -2.50296783 456.92124939 C-19.23928845 457.00041981 -35.8059354 455.37786664 -51.50683594 449.15405273 C-52.66517944 448.70908447 -52.66517944 448.70908447 -53.84692383 448.25512695 C-70.70212337 441.59358274 -84.50325206 431.83108747 -97.69433594 419.40405273 C-98.35820313 418.80463867 -99.02207031 418.20522461 -99.70605469 417.58764648 C-121.92963227 396.71641642 -135.16056157 364.50953781 -136.15422916 334.26856995 C-136.23886228 329.35211753 -136.23248108 324.43820846 -136.21191406 319.52124023 C-136.2173501 317.30445906 -136.22448097 315.08768151 -136.2331543 312.87091064 C-136.25121446 306.9121724 -136.24439237 300.95371467 -136.23163795 294.99497223 C-136.22141972 288.72100642 -136.23092788 282.44706258 -136.23718262 276.1730957 C-136.24489628 264.9705933 -136.23256596 253.76819264 -136.21214527 242.5657146 C-136.19427951 232.45252015 -136.19738525 222.3395095 -136.21582031 212.22631836 C-136.23732958 200.42149909 -136.24513991 188.61676909 -136.23337126 176.8119297 C-136.22717635 170.58524803 -136.2261893 164.35869232 -136.23951721 158.13201904 C-136.2511821 152.27450893 -136.24285811 146.41734146 -136.21994019 140.55986786 C-136.21470939 138.42678136 -136.21606848 136.29366537 -136.22499084 134.16059113 C-136.36652298 96.84727406 -124.3332317 65.61930013 -98.69433594 38.40405273 C-98.09492187 37.74018555 -97.49550781 37.07631836 -96.87792969 36.39233398 C-83.68661748 22.34629313 -66.21156382 12.68455709 -48.13183594 6.52905273 C-47.33052246 6.25480469 -46.52920898 5.98055664 -45.70361328 5.69799805 C-30.4741115 0.81266275 -15.85115708 -0.03864891 0 0 Z " fill="#FFFFFF" transform="translate(161.6943359375,21.595947265625)"/>
<path d="M0 0 C84.15 0 168.3 0 255 0 C255 84.15 255 168.3 255 255 C170.85 255 86.7 255 0 255 C0 170.85 0 86.7 0 0 Z " fill="#EFDA4F" transform="translate(123,123)"/>
<path d="M0 0 C0.72123047 -0.01224609 1.44246094 -0.02449219 2.18554688 -0.03710938 C11.49416126 -0.06215497 19.26853317 2.45192921 26.6875 8.1875 C29.28450802 11.0252289 31.54519683 13.9953264 33.6875 17.1875 C32.34360229 20.34477934 31.08811696 21.91252636 28.2109375 23.765625 C27.540625 24.20390625 26.8703125 24.6421875 26.1796875 25.09375 C25.48101562 25.5371875 24.78234375 25.980625 24.0625 26.4375 C23.35609375 26.89640625 22.6496875 27.3553125 21.921875 27.828125 C20.18252567 28.95635159 18.43571759 30.07306445 16.6875 31.1875 C11.890625 26.40625 11.890625 26.40625 10.0625 24.4375 C6.59260054 21.28304594 1.69068664 21.86548424 -2.70703125 21.89453125 C-5.49119196 21.99358601 -5.49119196 21.99358601 -7.9375 24.0625 C-10.28218447 27.68610328 -10.65373824 29.83671242 -10.3125 34.1875 C-8.16399872 39.14557989 -4.83400012 40.84765115 -0.125 43 C0.57898926 43.339104 1.28297852 43.67820801 2.00830078 44.02758789 C4.94075309 45.4391114 7.88796217 46.81736709 10.84130859 48.18457031 C23.81699515 54.21404153 35.38112994 61.03980445 40.7890625 75.0390625 C43.41504218 84.24140867 42.13026872 93.78686652 37.6875 102.1875 C31.60576619 111.19462476 22.46066482 116.62418194 11.890625 118.75 C-2.88696876 120.76840305 -16.92309394 118.761932 -29.3125 110.1875 C-34.0718221 106.10499526 -38.51280935 101.86976687 -41.3125 96.1875 C-40.1567468 92.72024039 -39.60097149 92.46959351 -36.56640625 90.70703125 C-35.81166016 90.26552734 -35.05691406 89.82402344 -34.27929688 89.36914062 C-33.48587891 88.91732422 -32.69246094 88.46550781 -31.875 88 C-31.08544922 87.53658203 -30.29589844 87.07316406 -29.48242188 86.59570312 C-23.59461294 83.1875 -23.59461294 83.1875 -21.3125 83.1875 C-20.39763269 84.61062693 -19.4836117 86.03430618 -18.57421875 87.4609375 C-14.98265813 92.37570466 -10.32046542 95.98590692 -4.3125 97.1875 C2.43414906 97.74769108 7.84349784 97.20990153 13.5 93.1875 C16.31745186 90.61154401 16.62142313 89.76016618 17.0625 85.9375 C16.59781605 81.29066049 15.21368617 79.07897266 11.6875 76.1875 C7.25717378 73.76767508 2.64098419 71.78860705 -2 69.8125 C-14.3114282 64.56579656 -26.16791829 58.78804426 -32.3125 46.1875 C-35.34430259 37.35435888 -36.31351595 26.37657503 -32.3125 17.6875 C-27.38541224 9.44330246 -20.48734282 3.08226483 -11.09375 0.6015625 C-7.39356 0.05069152 -3.73186927 0.00328221 0 0 Z " fill="#323330" transform="translate(316.3125,238.8125)"/>
<path d="M0 0 C7.59 0 15.18 0 23 0 C23.06792532 11.69221246 23.12290233 23.38429268 23.15543652 35.07665825 C23.1710556 40.50658405 23.19222506 45.93636721 23.22631836 51.36621094 C23.259046 56.61170977 23.27688124 61.85707185 23.28463173 67.10266495 C23.29015123 69.09842199 23.30092922 71.09417202 23.31719017 73.08987045 C23.33914278 75.89715172 23.34195952 78.70387643 23.34057617 81.51123047 C23.351362 82.32619492 23.36214783 83.14115936 23.3732605 83.9808197 C23.32467096 93.16424267 20.99187465 101.81262112 14.50390625 108.5546875 C5.68431861 116.7428497 -4.12208839 118.27180897 -15.81640625 118.15234375 C-26.62495697 117.63512476 -35.64948916 112.82069277 -43 105 C-44.8605027 102.42773113 -46.49161612 99.79196055 -48 97 C-44.86918025 93.60060503 -41.40465341 91.10909344 -37.5 88.6875 C-36.93152344 88.31560547 -36.36304688 87.94371094 -35.77734375 87.56054688 C-33.38008416 86.06712646 -31.62430074 84.98479963 -28.75390625 85.0546875 C-26.59600564 86.21774306 -25.73956817 87.37052049 -24.4375 89.4375 C-22.69856701 92.16848 -21.82103981 93.1193068 -19 95 C-16.16461571 95.35576336 -16.16461571 95.35576336 -13.0625 95.3125 C-12.02222656 95.32925781 -10.98195312 95.34601563 -9.91015625 95.36328125 C-6.56623769 94.94585249 -5.30116024 94.44530451 -3 92 C-0.95466494 87.15523041 -0.69546331 82.60888971 -0.68115234 77.42431641 C-0.66608391 76.16479156 -0.66608391 76.16479156 -0.65071106 74.87982178 C-0.61996336 72.12040861 -0.6028674 69.3610921 -0.5859375 66.6015625 C-0.56721908 64.68198825 -0.54764516 62.76242218 -0.5272522 60.84286499 C-0.47599623 55.80251895 -0.43633552 50.76214626 -0.39910889 45.72167969 C-0.35902826 40.57350098 -0.30795444 35.42543255 -0.2578125 30.27734375 C-0.16113052 20.18496571 -0.07771756 10.09254191 0 0 Z " fill="#30322F" transform="translate(238,240)"/>
<path d="M0 0 C0.99 0.33 1.98 0.66 3 1 C0.03 3.97 -2.94 6.94 -6 10 C-6.33 9.01 -6.66 8.02 -7 7 C-4.69 4.69 -2.38 2.38 0 0 Z " fill="#25282D" transform="translate(294,245)"/>
</svg>
